REM DIRINDEX 1\2\4,1\2\5,1\2\6,1\3\7,1\3\8
REM DIRNAME folder01,folder02,folder03,folder04,folder05,folder06,folder07,folder08
TITLE ""
FILE "004_Lesson 03_Output_Stage.mp3" MP3
  TRACK 01 AUDIO
    TITLE "0:"
    INDEX 01 00:00:00
  TRACK 02 AUDIO
    TITLE "8:cjc128_2511"
    INDEX 01 00:00:11
  TRACK 03 AUDIO
    TITLE "0:"
    INDEX 01 00:02:73
  TRACK 04 AUDIO
    TITLE "8:cjc128_2512"
    INDEX 01 00:03:04
  TRACK 05 AUDIO
    TITLE "0:"
    INDEX 01 00:04:29
  TRACK 06 AUDIO
    TITLE "7:cjc128_2513"
    INDEX 01 00:05:16
  TRACK 07 AUDIO
    TITLE "0:"
    INDEX 01 00:06:65
  TRACK 08 AUDIO
    TITLE "8:cjc128_2514"
    INDEX 01 00:09:26
  TRACK 09 AUDIO
    TITLE "0:"
    INDEX 01 00:10:55
  TRACK 10 AUDIO
    TITLE "7:cjc128_2515"
    INDEX 01 00:11:40
  TRACK 11 AUDIO
    TITLE "0:"
    INDEX 01 00:13:35
  TRACK 12 AUDIO
    TITLE "8:cjc128_2516"
    INDEX 01 00:15:64
  TRACK 13 AUDIO
    TITLE "0:"
    INDEX 01 00:17:23
  TRACK 14 AUDIO
    TITLE "7:cjc128_2517"
    INDEX 01 00:17:74
  TRACK 15 AUDIO
    TITLE "0:"
    INDEX 01 00:19:58
  TRACK 16 AUDIO
    TITLE "8:cjc128_2518"
    INDEX 01 00:21:66
  TRACK 17 AUDIO
    TITLE "0:"
    INDEX 01 00:23:22
  TRACK 18 AUDIO
    TITLE "7:cjc128_2519"
    INDEX 01 00:24:00
  TRACK 19 AUDIO
    TITLE "0:"
    INDEX 01 00:25:52
  TRACK 20 AUDIO
    TITLE "8:cjc128_2520"
    INDEX 01 00:27:61
  TRACK 21 AUDIO
    TITLE "0:"
    INDEX 01 00:29:17
  TRACK 22 AUDIO
    TITLE "7:cjc128_2521"
    INDEX 01 00:30:01
  TRACK 23 AUDIO
    TITLE "0:"
    INDEX 01 00:33:44
  TRACK 24 AUDIO
    TITLE "8:cjc128_2522"
    INDEX 01 00:37:34
  TRACK 25 AUDIO
    TITLE "0:"
    INDEX 01 00:38:53
  TRACK 26 AUDIO
    TITLE "7:cjc128_2523"
    INDEX 01 00:39:37
  TRACK 27 AUDIO
    TITLE "0:"
    INDEX 01 00:41:53
  TRACK 28 AUDIO
    TITLE "8:cjc128_2524"
    INDEX 01 00:44:38
  TRACK 29 AUDIO
    TITLE "0:"
    INDEX 01 00:45:65
  TRACK 30 AUDIO
    TITLE "7:cjc128_2525"
    INDEX 01 00:46:45
  TRACK 31 AUDIO
    TITLE "0:"
    INDEX 01 00:48:67
  TRACK 32 AUDIO
    TITLE "8:cjc128_2526"
    INDEX 01 00:51:65
  TRACK 33 AUDIO
    TITLE "0:"
    INDEX 01 00:52:71
  TRACK 34 AUDIO
    TITLE "7:cjc128_2527"
    INDEX 01 00:53:58
  TRACK 35 AUDIO
    TITLE "0:"
    INDEX 01 00:56:02
  TRACK 36 AUDIO
    TITLE "8:cjc128_2528"
    INDEX 01 00:58:48
  TRACK 37 AUDIO
    TITLE "0:"
    INDEX 01 00:59:73
  TRACK 38 AUDIO
    TITLE "7:cjc128_2529"
    INDEX 01 01:00:59
  TRACK 39 AUDIO
    TITLE "0:"
    INDEX 01 01:02:71
  TRACK 40 AUDIO
    TITLE "8:cjc128_2530"
    INDEX 01 01:05:38
  TRACK 41 AUDIO
    TITLE "0:"
    INDEX 01 01:06:65
  TRACK 42 AUDIO
    TITLE "7:cjc128_2531"
    INDEX 01 01:07:49
  TRACK 43 AUDIO
    TITLE "0:"
    INDEX 01 01:10:14
  TRACK 44 AUDIO
    TITLE "8:cjc128_2532"
    INDEX 01 01:13:18
  TRACK 45 AUDIO
    TITLE "0:"
    INDEX 01 01:14:49
  TRACK 46 AUDIO
    TITLE "7:cjc128_2533"
    INDEX 01 01:15:31
  TRACK 47 AUDIO
    TITLE "0:"
    INDEX 01 01:17:04
  TRACK 48 AUDIO
    TITLE "8:cjc128_2534"
    INDEX 01 01:19:19
  TRACK 49 AUDIO
    TITLE "0:"
    INDEX 01 01:20:48
  TRACK 50 AUDIO
    TITLE "7:cjc128_2535"
    INDEX 01 01:21:33
  TRACK 51 AUDIO
    TITLE "0:"
    INDEX 01 01:23:28
  TRACK 52 AUDIO
    TITLE "8:cjc128_2536"
    INDEX 01 01:25:55
  TRACK 53 AUDIO
    TITLE "0:"
    INDEX 01 01:27:16
  TRACK 54 AUDIO
    TITLE "7:cjc128_2537"
    INDEX 01 01:28:06
  TRACK 55 AUDIO
    TITLE "0:"
    INDEX 01 01:29:70
  TRACK 56 AUDIO
    TITLE "8:cjc128_2538"
    INDEX 01 01:32:25
  TRACK 57 AUDIO
    TITLE "0:"
    INDEX 01 01:33:58
  TRACK 58 AUDIO
    TITLE "7:cjc128_2539"
    INDEX 01 01:34:52
  TRACK 59 AUDIO
    TITLE "0:"
    INDEX 01 01:36:31
  TRACK 60 AUDIO
    TITLE "8:cjc128_2540"
    INDEX 01 01:38:53
  TRACK 61 AUDIO
    TITLE "0:"
    INDEX 01 01:40:07
  TRACK 62 AUDIO
    TITLE "7:cjc128_2541"
    INDEX 01 01:40:68
  TRACK 63 AUDIO
    TITLE "0:"
    INDEX 01 01:43:03
  TRACK 64 AUDIO
    TITLE "8:cjc128_2542"
    INDEX 01 01:45:63
  TRACK 65 AUDIO
    TITLE "0:"
    INDEX 01 01:47:13
  TRACK 66 AUDIO
    TITLE "7:cjc128_2543"
    INDEX 01 01:47:72
  TRACK 67 AUDIO
    TITLE "0:"
    INDEX 01 01:50:11
  TRACK 68 AUDIO
    TITLE "8:cjc128_2544"
    INDEX 01 01:52:65
  TRACK 69 AUDIO
    TITLE "0:"
    INDEX 01 01:54:23
  TRACK 70 AUDIO
    TITLE "7:cjc128_2545"
    INDEX 01 01:55:07
  TRACK 71 AUDIO
    TITLE "0:"
    INDEX 01 01:56:26
  TRACK 72 AUDIO
    TITLE "8:cjc128_2546"
    INDEX 01 01:58:11
  TRACK 73 AUDIO
    TITLE "0:"
    INDEX 01 01:59:22
  TRACK 74 AUDIO
    TITLE "7:cjc128_2547"
    INDEX 01 02:00:08
  TRACK 75 AUDIO
    TITLE "0:"
    INDEX 01 02:01:41
  TRACK 76 AUDIO
    TITLE "8:cjc128_2548"
    INDEX 01 02:03:41
  TRACK 77 AUDIO
    TITLE "0:"
    INDEX 01 02:04:70
  TRACK 78 AUDIO
    TITLE "7:cjc128_2549"
    INDEX 01 02:05:56
  TRACK 79 AUDIO
    TITLE "0:"
    INDEX 01 02:07:20
  TRACK 80 AUDIO
    TITLE "8:cjc128_2550"
    INDEX 01 02:09:21
  TRACK 81 AUDIO
    TITLE "0:"
    INDEX 01 02:10:53
  TRACK 82 AUDIO
    TITLE "7:cjc128_2551"
    INDEX 01 02:11:39
  TRACK 83 AUDIO
    TITLE "0:"
    INDEX 01 02:14:16
  TRACK 84 AUDIO
    TITLE "8:cjc128_2552"
    INDEX 01 02:17:26
  TRACK 85 AUDIO
    TITLE "0:"
    INDEX 01 02:18:61
  TRACK 86 AUDIO
    TITLE "7:cjc128_2553"
    INDEX 01 02:19:46
  TRACK 87 AUDIO
    TITLE "0:"
    INDEX 01 02:21:35
  TRACK 88 AUDIO
    TITLE "8:cjc128_2554"
    INDEX 01 02:23:64
  TRACK 89 AUDIO
    TITLE "0:"
    INDEX 01 02:25:21
  TRACK 90 AUDIO
    TITLE "7:cjc128_2555"
    INDEX 01 02:26:07
  TRACK 91 AUDIO
    TITLE "0:"
    INDEX 01 02:28:16
  TRACK 92 AUDIO
    TITLE "8:cjc128_2556"
    INDEX 01 02:30:64
  TRACK 93 AUDIO
    TITLE "0:"
    INDEX 01 02:32:27
  TRACK 94 AUDIO
    TITLE "7:cjc128_2557"
    INDEX 01 02:33:05
  TRACK 95 AUDIO
    TITLE "0:"
    INDEX 01 02:35:55
  TRACK 96 AUDIO
    TITLE "8:cjc128_2558"
    INDEX 01 02:38:67
  TRACK 97 AUDIO
    TITLE "0:"
    INDEX 01 02:40:25
  TRACK 98 AUDIO
    TITLE "7:cjc128_2559"
    INDEX 01 02:41:03
  TRACK 99 AUDIO
    TITLE "0:"
    INDEX 01 02:44:38
